%
M48
M72
T01C0.01500
T02C0.02000
T03C0.03500
T04C0.03900
T05C0.04000
T06C0.04300
T07C0.05500
T08C0.07200
T09C0.10000
T10C0.15000
%
T01
X152500Y91819
X160000Y91819
X170000Y91819
X180000Y91819
X165500Y110819
X171000Y117319
X175000Y117819
X178500Y114319
X187500Y119819
X176500Y121819
X170000Y121819
X164000Y135819
X180000Y136819
X195000Y130819
X200000Y135819
X197500Y138819
X203000Y140319
X206500Y142819
X207500Y146819
X223000Y151819
X223500Y159819
X233000Y152819
X230500Y138319
X228500Y134819
X233500Y130819
X236500Y136819
X242000Y134319
X246000Y134819
X260000Y126319
X257000Y112819
X247500Y106819
X236000Y114319
X238000Y123319
X223000Y123819
X206000Y136319
X202000Y123319
X166000Y150819
X164500Y154819
X168000Y163319
X159000Y166819
X145000Y171819
X145000Y181819
X145000Y191819
X135000Y191819
X125000Y191819
X115000Y191819
X105000Y191819
X95000Y191819
X85000Y191819
X75000Y191819
X65000Y191819
X65000Y199819
X55000Y199819
X55000Y191819
X45000Y191819
X75000Y201319
X77500Y206819
X97000Y211819
X148000Y236819
X185000Y246319
X205000Y246319
X211500Y269819
X224000Y284319
X237000Y271819
X294500Y275819
X299500Y288819
X310000Y288819
X316500Y272819
X298000Y217819
X271500Y208319
X266500Y206819
X272500Y201819
X280000Y191819
X265000Y188819
X258500Y185819
X262000Y179819
X272000Y160819
X232500Y174319
X230000Y181319
X220500Y187819
X206000Y184319
X195000Y183319
X195000Y191819
X194500Y199319
X194500Y207319
X162000Y186819
X170000Y179319
X178000Y170819
X185000Y160819
X192500Y159819
X196500Y165819
X199500Y168319
X205500Y172319
X217000Y172819
X185500Y152319
X181500Y152319
X145000Y151819
X145000Y161819
X145000Y141819
X145000Y131819
X145000Y121819
X145000Y114819
X278000Y113819
X137500Y289819
T02
X207500Y229819
X217500Y229819
X250000Y221819
X250000Y211819
X230500Y196819
X220500Y196819
X175000Y215819
X175000Y225819
T03
X305000Y194661
X305000Y174976
T04
X267000Y123319
X267000Y115319
X247000Y119319
T05
X255000Y101819
X265000Y101819
X275000Y101819
X285000Y101819
X295000Y101819
X305000Y101819
T06
X310000Y126819
X310000Y146819
T07
X323000Y146819
X323000Y126819
T08
X274000Y241819
X304000Y251819
X274000Y261819
X85000Y261819
X85000Y241819
X55000Y251819
T09
X184961Y218709
X212520Y218709
X240079Y218709
X212520Y191150
T10
X325000Y101819
X60000Y181819
X55000Y286819
M30
