G75*
G70*
%OFA0B0*%
%FSLAX24Y24*%
%IPPOS*%
%LPD*%
%AMOC8*
5,1,8,0,0,1.08239X$1,22.5*
%
%ADD10R,0.0631X0.0513*%
%ADD11R,0.0454X0.0434*%
%ADD12OC8,0.0800*%
%ADD13C,0.0800*%
%ADD14R,0.0375X0.0375*%
%ADD15C,0.0800*%
%ADD16R,0.0434X0.0454*%
%ADD17C,0.0660*%
%ADD18R,0.0493X0.0296*%
%ADD19R,0.0280X0.0580*%
%ADD20R,0.1320X0.0454*%
%ADD21R,0.0560X0.0280*%
%ADD22R,0.0280X0.0560*%
%ADD23R,0.0375X0.0414*%
%ADD24C,0.0417*%
%ADD25C,0.0420*%
%ADD26OC8,0.0417*%
D10*
X007680Y021986D03*
X007680Y022694D03*
X008680Y022694D03*
X008680Y021986D03*
D11*
X009680Y022025D03*
X009680Y022655D03*
X009680Y020655D03*
X009680Y020025D03*
X010680Y020025D03*
X010680Y020655D03*
X012980Y018655D03*
X012980Y018025D03*
X012180Y016655D03*
X012180Y016025D03*
X011180Y016155D03*
X011180Y015525D03*
X014180Y016025D03*
X014180Y016655D03*
X014180Y018025D03*
X014180Y018655D03*
X006680Y022025D03*
X006680Y022655D03*
X004680Y019155D03*
X004680Y018525D03*
X003680Y018525D03*
X003680Y019155D03*
D12*
X013180Y014840D03*
X013180Y013840D03*
X013180Y012840D03*
X014180Y012840D03*
X014180Y013840D03*
X014180Y014840D03*
D13*
X014180Y019840D03*
X013180Y019840D03*
X012180Y019840D03*
X011380Y009340D03*
D14*
X006880Y017645D03*
X006880Y018235D03*
D15*
X005550Y011840D02*
X004810Y011840D01*
X004810Y012840D02*
X005550Y012840D01*
X005550Y013840D02*
X004810Y013840D01*
X004810Y014840D02*
X005550Y014840D01*
X005550Y015840D02*
X004810Y015840D01*
X004810Y016840D02*
X005550Y016840D01*
D16*
X005565Y019040D03*
X006195Y019040D03*
D17*
X005230Y022240D02*
X005230Y022840D01*
X011130Y022840D02*
X011130Y022240D01*
D18*
X008152Y020714D03*
X008152Y020340D03*
X008152Y019966D03*
X007208Y019966D03*
X007208Y020714D03*
D19*
X012810Y021330D03*
X013180Y021330D03*
X013550Y021330D03*
X013550Y022350D03*
X013180Y022350D03*
X012810Y022350D03*
D20*
X005680Y020773D03*
X005680Y019907D03*
D21*
X006990Y016942D03*
X006990Y016627D03*
X006990Y016312D03*
X006990Y015997D03*
X006990Y015683D03*
X006990Y015368D03*
X006990Y015053D03*
X006990Y014738D03*
X010370Y014738D03*
X010370Y015053D03*
X010370Y015368D03*
X010370Y015683D03*
X010370Y015997D03*
X010370Y016312D03*
X010370Y016627D03*
X010370Y016942D03*
D22*
X009782Y017530D03*
X009467Y017530D03*
X009152Y017530D03*
X008837Y017530D03*
X008523Y017530D03*
X008208Y017530D03*
X007893Y017530D03*
X007578Y017530D03*
X007578Y014150D03*
X007893Y014150D03*
X008208Y014150D03*
X008523Y014150D03*
X008837Y014150D03*
X009152Y014150D03*
X009467Y014150D03*
X009782Y014150D03*
D23*
X012806Y016446D03*
X013180Y017273D03*
X013554Y016446D03*
D24*
X014380Y017440D03*
X012180Y017340D03*
X010580Y018640D03*
X009580Y016840D03*
X008880Y016840D03*
X008180Y016340D03*
X009280Y015340D03*
X009780Y013340D03*
X009280Y012840D03*
X008780Y012340D03*
X010880Y014240D03*
X014180Y010840D03*
X007880Y019140D03*
X007080Y019340D03*
X005880Y017840D03*
X004180Y017340D03*
X006180Y015140D03*
X008980Y021040D03*
X010680Y021340D03*
X013180Y023040D03*
D25*
X013980Y020940D03*
X011380Y014640D03*
D26*
X008880Y019740D03*
M02*
