%
M48
M72
T01C0.0197
T02C0.0200
T03C0.0400
T04C0.0440
%
T01
X8780Y12340
X9280Y12840
X9780Y13340
X10880Y14240
X9280Y15340
X9580Y16840
X8880Y16840
X8180Y16340
X6180Y15140
X5880Y17840
X7080Y19340
X7880Y19140
X8880Y19740
X8980Y21040
X10680Y21340
X10580Y18640
X12180Y17340
X14380Y17440
X13180Y23040
X14180Y10840
X4180Y17340
T02
X11380Y14640
X13980Y20940
T03
X14180Y19840
X13180Y19840
X12180Y19840
X11130Y22540
X13180Y14840
X13180Y13840
X13180Y12840
X14180Y12840
X14180Y13840
X14180Y14840
X11380Y9340
X5230Y22540
T04
X5180Y11840
X5180Y12840
X5180Y13840
X5180Y14840
X5180Y15840
X5180Y16840
M30
