G75*
G70*
%OFA0B0*%
%FSLAX24Y24*%
%IPPOS*%
%LPD*%
%AMOC8*
5,1,8,0,0,1.08239X$1,22.5*
%
%ADD10C,0.0000*%
D10*
X002180Y008340D02*
X014180Y008340D01*
X014240Y008342D01*
X014301Y008347D01*
X014360Y008356D01*
X014419Y008369D01*
X014478Y008385D01*
X014535Y008405D01*
X014590Y008428D01*
X014645Y008455D01*
X014697Y008484D01*
X014748Y008517D01*
X014797Y008553D01*
X014843Y008591D01*
X014887Y008633D01*
X014929Y008677D01*
X014967Y008723D01*
X015003Y008772D01*
X015036Y008823D01*
X015065Y008875D01*
X015092Y008930D01*
X015115Y008985D01*
X015135Y009042D01*
X015151Y009101D01*
X015164Y009160D01*
X015173Y009219D01*
X015178Y009280D01*
X015180Y009340D01*
X015180Y022840D01*
X015178Y022900D01*
X015173Y022961D01*
X015164Y023020D01*
X015151Y023079D01*
X015135Y023138D01*
X015115Y023195D01*
X015092Y023250D01*
X015065Y023305D01*
X015036Y023357D01*
X015003Y023408D01*
X014967Y023457D01*
X014929Y023503D01*
X014887Y023547D01*
X014843Y023589D01*
X014797Y023627D01*
X014748Y023663D01*
X014697Y023696D01*
X014645Y023725D01*
X014590Y023752D01*
X014535Y023775D01*
X014478Y023795D01*
X014419Y023811D01*
X014360Y023824D01*
X014301Y023833D01*
X014240Y023838D01*
X014180Y023840D01*
X002180Y023840D01*
X002120Y023838D01*
X002059Y023833D01*
X002000Y023824D01*
X001941Y023811D01*
X001882Y023795D01*
X001825Y023775D01*
X001770Y023752D01*
X001715Y023725D01*
X001663Y023696D01*
X001612Y023663D01*
X001563Y023627D01*
X001517Y023589D01*
X001473Y023547D01*
X001431Y023503D01*
X001393Y023457D01*
X001357Y023408D01*
X001324Y023357D01*
X001295Y023305D01*
X001268Y023250D01*
X001245Y023195D01*
X001225Y023138D01*
X001209Y023079D01*
X001196Y023020D01*
X001187Y022961D01*
X001182Y022900D01*
X001180Y022840D01*
X001180Y009340D01*
X001182Y009280D01*
X001187Y009219D01*
X001196Y009160D01*
X001209Y009101D01*
X001225Y009042D01*
X001245Y008985D01*
X001268Y008930D01*
X001295Y008875D01*
X001324Y008823D01*
X001357Y008772D01*
X001393Y008723D01*
X001431Y008677D01*
X001473Y008633D01*
X001517Y008591D01*
X001563Y008553D01*
X001612Y008517D01*
X001663Y008484D01*
X001715Y008455D01*
X001770Y008428D01*
X001825Y008405D01*
X001882Y008385D01*
X001941Y008369D01*
X002000Y008356D01*
X002059Y008347D01*
X002120Y008342D01*
X002180Y008340D01*
M02*
