G75*
G70*
%OFA0B0*%
%FSLAX24Y24*%
%IPPOS*%
%LPD*%
%AMOC8*
5,1,8,0,0,1.08239X$1,22.5*
%
%ADD10C,0.0060*%
%ADD11C,0.0039*%
%ADD12C,0.0080*%
%ADD13C,0.0050*%
%ADD14C,0.0000*%
%ADD15C,0.0030*%
D10*
X002210Y009370D02*
X002437Y009597D01*
X002437Y009654D01*
X002380Y009710D01*
X002267Y009710D01*
X002210Y009654D01*
X002210Y009370D02*
X002437Y009370D01*
X002578Y009427D02*
X002578Y009654D01*
X002635Y009710D01*
X002748Y009710D01*
X002805Y009654D01*
X002578Y009427D01*
X002635Y009370D01*
X002748Y009370D01*
X002805Y009427D01*
X002805Y009654D01*
X002947Y009597D02*
X003060Y009710D01*
X003060Y009370D01*
X002947Y009370D02*
X003173Y009370D01*
X003315Y009427D02*
X003372Y009370D01*
X003485Y009370D01*
X003542Y009427D01*
X003542Y009483D01*
X003485Y009540D01*
X003315Y009540D01*
X003315Y009427D01*
X003315Y009540D02*
X003428Y009654D01*
X003542Y009710D01*
X003542Y009970D02*
X003372Y009970D01*
X003315Y010027D01*
X003315Y010140D01*
X003372Y010197D01*
X003542Y010197D01*
X003542Y010310D02*
X003542Y009970D01*
X003683Y009970D02*
X003683Y010197D01*
X003683Y010083D02*
X003797Y010197D01*
X003853Y010197D01*
X003990Y010140D02*
X003990Y010027D01*
X004047Y009970D01*
X004160Y009970D01*
X004217Y010027D01*
X004217Y010140D01*
X004160Y010197D01*
X004047Y010197D01*
X003990Y010140D01*
X004038Y009710D02*
X004094Y009654D01*
X003867Y009427D01*
X003924Y009370D01*
X004038Y009370D01*
X004094Y009427D01*
X004094Y009654D01*
X004038Y009710D02*
X003924Y009710D01*
X003867Y009654D01*
X003867Y009427D01*
X003740Y009427D02*
X003740Y009370D01*
X003683Y009370D01*
X003683Y009427D01*
X003740Y009427D01*
X004236Y009540D02*
X004463Y009540D01*
X004406Y009370D02*
X004406Y009710D01*
X004236Y009540D01*
X004359Y009913D02*
X004585Y009913D01*
X004840Y009970D02*
X004727Y010197D01*
X004954Y010197D02*
X004840Y009970D01*
X004902Y009710D02*
X004902Y009370D01*
X005015Y009370D02*
X004788Y009370D01*
X004661Y009370D02*
X004604Y009370D01*
X004604Y009427D01*
X004661Y009427D01*
X004661Y009370D01*
X004788Y009597D02*
X004902Y009710D01*
X005157Y009597D02*
X005270Y009710D01*
X005270Y009370D01*
X005157Y009370D02*
X005383Y009370D01*
X005265Y009970D02*
X005265Y010310D01*
X005095Y010140D01*
X005322Y010140D01*
X005430Y010900D02*
X005317Y011013D01*
X005374Y011013D02*
X005203Y011013D01*
X005203Y010900D02*
X005203Y011240D01*
X005374Y011240D01*
X005430Y011184D01*
X005430Y011070D01*
X005374Y011013D01*
X005572Y010900D02*
X005572Y011240D01*
X005685Y011127D01*
X005799Y011240D01*
X005799Y010900D01*
X005062Y010957D02*
X005062Y011070D01*
X004948Y011070D01*
X004835Y010957D02*
X004892Y010900D01*
X005005Y010900D01*
X005062Y010957D01*
X005062Y011184D02*
X005005Y011240D01*
X004892Y011240D01*
X004835Y011184D01*
X004835Y010957D01*
X004694Y011070D02*
X004637Y011013D01*
X004467Y011013D01*
X004467Y010900D02*
X004467Y011240D01*
X004637Y011240D01*
X004694Y011184D01*
X004694Y011070D01*
X003173Y010140D02*
X003173Y009970D01*
X003173Y010140D02*
X003117Y010197D01*
X002947Y010197D01*
X002947Y009970D01*
X002805Y010083D02*
X002578Y010083D01*
X002578Y010027D02*
X002578Y010140D01*
X002635Y010197D01*
X002748Y010197D01*
X002805Y010140D01*
X002805Y010083D01*
X002748Y009970D02*
X002635Y009970D01*
X002578Y010027D01*
X002437Y009970D02*
X002437Y010310D01*
X002437Y010197D02*
X002267Y010197D01*
X002210Y010140D01*
X002210Y010027D01*
X002267Y009970D01*
X002437Y009970D01*
X006235Y016820D02*
X006575Y016820D01*
X006575Y017047D01*
X006575Y017188D02*
X006575Y017415D01*
X006575Y017557D02*
X006575Y017727D01*
X006518Y017783D01*
X006291Y017783D01*
X006235Y017727D01*
X006235Y017557D01*
X006575Y017557D01*
X006405Y017302D02*
X006405Y017188D01*
X006235Y017188D02*
X006575Y017188D01*
X006235Y017188D02*
X006235Y017415D01*
X006348Y017925D02*
X006235Y018038D01*
X006575Y018038D01*
X006575Y017925D02*
X006575Y018152D01*
X005891Y018381D02*
X005835Y018324D01*
X005721Y018324D01*
X005665Y018381D01*
X005665Y018494D01*
X005835Y018494D01*
X005891Y018437D01*
X005891Y018381D01*
X005665Y018494D02*
X005778Y018608D01*
X005891Y018664D01*
X005523Y018608D02*
X005523Y018494D01*
X005466Y018437D01*
X005296Y018437D01*
X005296Y018324D02*
X005296Y018664D01*
X005466Y018664D01*
X005523Y018608D01*
X005410Y018437D02*
X005523Y018324D01*
X004991Y018164D02*
X004765Y018164D01*
X004765Y017994D01*
X004878Y018051D01*
X004935Y018051D01*
X004991Y017994D01*
X004991Y017881D01*
X004935Y017824D01*
X004821Y017824D01*
X004765Y017881D01*
X004623Y017824D02*
X004510Y017937D01*
X004566Y017937D02*
X004396Y017937D01*
X004396Y017824D02*
X004396Y018164D01*
X004566Y018164D01*
X004623Y018108D01*
X004623Y017994D01*
X004566Y017937D01*
X003941Y017881D02*
X003885Y017824D01*
X003771Y017824D01*
X003715Y017881D01*
X003715Y017994D02*
X003828Y018051D01*
X003885Y018051D01*
X003941Y017994D01*
X003941Y017881D01*
X003715Y017994D02*
X003715Y018164D01*
X003941Y018164D01*
X003573Y018108D02*
X003516Y018164D01*
X003403Y018164D01*
X003346Y018108D01*
X003346Y017881D01*
X003403Y017824D01*
X003516Y017824D01*
X003573Y017881D01*
X004410Y020070D02*
X004693Y020070D01*
X004750Y020127D01*
X004750Y020240D01*
X004693Y020297D01*
X004410Y020297D01*
X004580Y020438D02*
X004410Y020608D01*
X004750Y020608D01*
X004580Y020665D02*
X004580Y020438D01*
X006410Y021227D02*
X006467Y021170D01*
X006580Y021170D01*
X006637Y021227D01*
X006778Y021227D02*
X006835Y021170D01*
X006948Y021170D01*
X007005Y021227D01*
X007005Y021283D01*
X006948Y021340D01*
X006778Y021340D01*
X006778Y021227D01*
X006778Y021340D02*
X006892Y021454D01*
X007005Y021510D01*
X006637Y021454D02*
X006580Y021510D01*
X006467Y021510D01*
X006410Y021454D01*
X006410Y021227D01*
X007410Y021227D02*
X007467Y021170D01*
X007580Y021170D01*
X007637Y021227D01*
X007778Y021170D02*
X008005Y021170D01*
X007892Y021170D02*
X007892Y021510D01*
X007778Y021397D01*
X007637Y021454D02*
X007580Y021510D01*
X007467Y021510D01*
X007410Y021454D01*
X007410Y021227D01*
X007568Y020704D02*
X007512Y020647D01*
X007512Y020534D01*
X007568Y020477D01*
X007512Y020336D02*
X007795Y020336D01*
X007852Y020279D01*
X007852Y020166D01*
X007795Y020109D01*
X007512Y020109D01*
X007852Y020477D02*
X007625Y020704D01*
X007568Y020704D01*
X007852Y020704D02*
X007852Y020477D01*
X008467Y021170D02*
X008410Y021227D01*
X008410Y021454D01*
X008467Y021510D01*
X008580Y021510D01*
X008637Y021454D01*
X008778Y021454D02*
X008835Y021510D01*
X008948Y021510D01*
X009005Y021454D01*
X009005Y021397D01*
X008778Y021170D01*
X009005Y021170D01*
X008637Y021227D02*
X008580Y021170D01*
X008467Y021170D01*
X009410Y021227D02*
X009467Y021170D01*
X009580Y021170D01*
X009637Y021227D01*
X009778Y021227D02*
X009778Y021170D01*
X009778Y021227D02*
X010005Y021454D01*
X010005Y021510D01*
X009778Y021510D01*
X009637Y021454D02*
X009580Y021510D01*
X009467Y021510D01*
X009410Y021454D01*
X009410Y021227D01*
X009446Y019664D02*
X009616Y019664D01*
X009673Y019608D01*
X009673Y019494D01*
X009616Y019437D01*
X009446Y019437D01*
X009446Y019324D02*
X009446Y019664D01*
X009560Y019437D02*
X009673Y019324D01*
X009815Y019324D02*
X010041Y019324D01*
X009928Y019324D02*
X009928Y019664D01*
X009815Y019551D01*
X010396Y019664D02*
X010396Y019324D01*
X010396Y019437D02*
X010566Y019437D01*
X010623Y019494D01*
X010623Y019608D01*
X010566Y019664D01*
X010396Y019664D01*
X010510Y019437D02*
X010623Y019324D01*
X010765Y019324D02*
X010991Y019551D01*
X010991Y019608D01*
X010935Y019664D01*
X010821Y019664D01*
X010765Y019608D01*
X010765Y019324D02*
X010991Y019324D01*
X011230Y019395D02*
X011230Y019622D01*
X011230Y019763D02*
X011570Y019990D01*
X011230Y019990D01*
X011286Y020132D02*
X011230Y020188D01*
X011230Y020302D01*
X011286Y020359D01*
X011400Y020302D02*
X011457Y020359D01*
X011513Y020359D01*
X011570Y020302D01*
X011570Y020188D01*
X011513Y020132D01*
X011400Y020188D02*
X011400Y020302D01*
X011400Y020188D02*
X011343Y020132D01*
X011286Y020132D01*
X011230Y019763D02*
X011570Y019763D01*
X011570Y019622D02*
X011570Y019395D01*
X011230Y019395D01*
X011286Y019254D02*
X011230Y019197D01*
X011230Y019083D01*
X011286Y019027D01*
X011343Y019027D01*
X011400Y019083D01*
X011400Y019197D01*
X011457Y019254D01*
X011513Y019254D01*
X011570Y019197D01*
X011570Y019083D01*
X011513Y019027D01*
X011400Y019395D02*
X011400Y019508D01*
X012214Y018536D02*
X012384Y018365D01*
X012384Y018592D01*
X012554Y018536D02*
X012214Y018536D01*
X012270Y018224D02*
X012384Y018224D01*
X012441Y018167D01*
X012441Y017997D01*
X012554Y017997D02*
X012214Y017997D01*
X012214Y018167D01*
X012270Y018224D01*
X012441Y018111D02*
X012554Y018224D01*
X013485Y017504D02*
X013485Y017277D01*
X013542Y017220D01*
X013655Y017220D01*
X013712Y017277D01*
X013712Y017504D01*
X013655Y017560D01*
X013542Y017560D01*
X013485Y017504D01*
X013598Y017333D02*
X013712Y017220D01*
X013853Y017220D02*
X014080Y017447D01*
X014080Y017504D01*
X014023Y017560D01*
X013910Y017560D01*
X013853Y017504D01*
X013853Y017220D02*
X014080Y017220D01*
X013896Y018056D02*
X013556Y018056D01*
X013556Y018226D01*
X013612Y018283D01*
X013726Y018283D01*
X013783Y018226D01*
X013783Y018056D01*
X013783Y018170D02*
X013896Y018283D01*
X013896Y018425D02*
X013839Y018425D01*
X013612Y018651D01*
X013556Y018651D01*
X013556Y018425D01*
X013519Y016101D02*
X013576Y016045D01*
X013633Y016101D01*
X013689Y016101D01*
X013746Y016045D01*
X013746Y015931D01*
X013689Y015875D01*
X013746Y015733D02*
X013633Y015620D01*
X013633Y015676D02*
X013633Y015506D01*
X013746Y015506D02*
X013406Y015506D01*
X013406Y015676D01*
X013462Y015733D01*
X013576Y015733D01*
X013633Y015676D01*
X013462Y015875D02*
X013406Y015931D01*
X013406Y016045D01*
X013462Y016101D01*
X013519Y016101D01*
X013576Y016045D02*
X013576Y015988D01*
X012896Y015995D02*
X012896Y015881D01*
X012839Y015825D01*
X012839Y015683D02*
X012896Y015626D01*
X012896Y015513D01*
X012839Y015456D01*
X012612Y015456D01*
X012556Y015513D01*
X012556Y015626D01*
X012612Y015683D01*
X012612Y015825D02*
X012556Y015881D01*
X012556Y015995D01*
X012612Y016051D01*
X012669Y016051D01*
X012726Y015995D01*
X012783Y016051D01*
X012839Y016051D01*
X012896Y015995D01*
X012726Y015995D02*
X012726Y015938D01*
X011485Y016574D02*
X011485Y016914D01*
X011315Y016744D01*
X011541Y016744D01*
X011173Y016631D02*
X011116Y016574D01*
X011003Y016574D01*
X010946Y016631D01*
X010946Y016858D01*
X011003Y016914D01*
X011116Y016914D01*
X011173Y016858D01*
X010060Y017220D02*
X007440Y017220D01*
X007300Y017080D01*
X007300Y014460D01*
X010060Y014460D01*
X010060Y017220D01*
X009142Y016310D02*
X009142Y015970D01*
X009255Y015970D02*
X009028Y015970D01*
X008887Y016027D02*
X008887Y016310D01*
X009028Y016197D02*
X009142Y016310D01*
X008887Y016027D02*
X008830Y015970D01*
X008717Y015970D01*
X008660Y016027D01*
X008660Y016310D01*
X007459Y016920D02*
X007461Y016943D01*
X007467Y016966D01*
X007476Y016987D01*
X007489Y017007D01*
X007505Y017024D01*
X007523Y017038D01*
X007543Y017049D01*
X007565Y017057D01*
X007588Y017061D01*
X007612Y017061D01*
X007635Y017057D01*
X007657Y017049D01*
X007677Y017038D01*
X007695Y017024D01*
X007711Y017007D01*
X007724Y016987D01*
X007733Y016966D01*
X007739Y016943D01*
X007741Y016920D01*
X007739Y016897D01*
X007733Y016874D01*
X007724Y016853D01*
X007711Y016833D01*
X007695Y016816D01*
X007677Y016802D01*
X007657Y016791D01*
X007635Y016783D01*
X007612Y016779D01*
X007588Y016779D01*
X007565Y016783D01*
X007543Y016791D01*
X007523Y016802D01*
X007505Y016816D01*
X007489Y016833D01*
X007476Y016853D01*
X007467Y016874D01*
X007461Y016897D01*
X007459Y016920D01*
X012010Y021570D02*
X012293Y021570D01*
X012350Y021627D01*
X012350Y021740D01*
X012293Y021797D01*
X012010Y021797D01*
X012066Y021938D02*
X012010Y021995D01*
X012010Y022108D01*
X012066Y022165D01*
X012123Y022165D01*
X012180Y022108D01*
X012237Y022165D01*
X012293Y022165D01*
X012350Y022108D01*
X012350Y021995D01*
X012293Y021938D01*
X012180Y022052D02*
X012180Y022108D01*
X012570Y022060D02*
X012570Y021960D01*
X012570Y021720D01*
X012570Y021620D01*
X013790Y021620D02*
X013790Y022060D01*
X013844Y012260D02*
X013730Y012260D01*
X013673Y012204D01*
X013673Y012147D01*
X013730Y012090D01*
X013844Y012090D01*
X013900Y012033D01*
X013900Y011977D01*
X013844Y011920D01*
X013730Y011920D01*
X013673Y011977D01*
X013532Y011977D02*
X013475Y011920D01*
X013362Y011920D01*
X013305Y011977D01*
X013305Y012204D01*
X013362Y012260D01*
X013475Y012260D01*
X013532Y012204D01*
X013844Y012260D02*
X013900Y012204D01*
X014042Y012260D02*
X014042Y011920D01*
X014042Y012033D02*
X014212Y012033D01*
X014269Y012090D01*
X014269Y012204D01*
X014212Y012260D01*
X014042Y012260D01*
X013173Y012260D02*
X013060Y012260D01*
X013116Y012260D02*
X013116Y011920D01*
X013060Y011920D02*
X013173Y011920D01*
X012040Y009753D02*
X012040Y009527D01*
X012040Y009640D02*
X012380Y009640D01*
X012380Y009385D02*
X012040Y009385D01*
X012040Y009158D02*
X012380Y009385D01*
X012380Y009158D02*
X012040Y009158D01*
X012153Y009017D02*
X012040Y008903D01*
X012153Y008790D01*
X012380Y008790D01*
X012210Y008790D02*
X012210Y009017D01*
X012153Y009017D02*
X012380Y009017D01*
D11*
X011475Y015249D02*
X010885Y015249D01*
X010885Y016431D01*
X011475Y016431D01*
X011475Y015249D01*
X011885Y015749D02*
X012475Y015749D01*
X012475Y016931D01*
X011885Y016931D01*
X011885Y015749D01*
X012685Y017749D02*
X013275Y017749D01*
X013275Y018931D01*
X012685Y018931D01*
X012685Y017749D01*
X013885Y017749D02*
X014475Y017749D01*
X014475Y018931D01*
X013885Y018931D01*
X013885Y017749D01*
X013885Y016931D02*
X014475Y016931D01*
X014475Y015749D01*
X013885Y015749D01*
X013885Y016931D01*
X010975Y019749D02*
X010975Y020931D01*
X010385Y020931D01*
X010385Y019749D01*
X010975Y019749D01*
X009975Y019749D02*
X009975Y020931D01*
X009385Y020931D01*
X009385Y019749D01*
X009975Y019749D01*
X009074Y021651D02*
X008286Y021651D01*
X008286Y023029D01*
X009074Y023029D01*
X009074Y021651D01*
X009385Y021749D02*
X009975Y021749D01*
X009975Y022931D01*
X009385Y022931D01*
X009385Y021749D01*
X008074Y021651D02*
X007286Y021651D01*
X007286Y023029D01*
X008074Y023029D01*
X008074Y021651D01*
X006975Y021749D02*
X006975Y022931D01*
X006385Y022931D01*
X006385Y021749D01*
X006975Y021749D01*
X006471Y019335D02*
X005289Y019335D01*
X005289Y018745D01*
X006471Y018745D01*
X006471Y019335D01*
X004975Y019431D02*
X004975Y018249D01*
X004385Y018249D01*
X004385Y019431D01*
X004975Y019431D01*
X003975Y019431D02*
X003975Y018249D01*
X003385Y018249D01*
X003385Y019431D01*
X003975Y019431D01*
D12*
X004930Y017340D02*
X005430Y017340D01*
X006699Y017873D02*
X006880Y017873D01*
X006788Y017995D01*
X006880Y017873D02*
X007061Y017873D01*
X006966Y017995D02*
X006890Y017879D01*
X005430Y011340D02*
X004930Y011340D01*
X010880Y009590D02*
X010880Y009090D01*
X011130Y008840D01*
X011630Y008840D01*
X011880Y009090D01*
X011880Y009590D01*
X011630Y009840D01*
X011130Y009840D01*
X010880Y009590D01*
X012930Y012340D02*
X012680Y012590D01*
X012680Y013090D01*
X012930Y013340D01*
X014430Y013340D01*
X014680Y013590D01*
X014680Y014090D01*
X014430Y014340D01*
X012930Y014340D01*
X012680Y014590D01*
X012680Y015090D01*
X012930Y015340D01*
X014430Y015340D01*
X014680Y015090D01*
X014680Y014590D01*
X014430Y014340D01*
X014430Y013340D02*
X014680Y013090D01*
X014680Y012590D01*
X014430Y012340D01*
X012930Y012340D01*
X012930Y013340D02*
X012680Y013590D01*
X012680Y014090D01*
X012930Y014340D01*
X012629Y016801D02*
X012629Y017116D01*
X012865Y017116D01*
X013495Y017116D02*
X013731Y017116D01*
X013731Y016801D01*
X013930Y019340D02*
X013680Y019590D01*
X013430Y019340D01*
X012930Y019340D01*
X012680Y019590D01*
X012430Y019340D01*
X011930Y019340D01*
X011680Y019590D01*
X011680Y020090D01*
X011930Y020340D01*
X012430Y020340D01*
X012680Y020090D01*
X012930Y020340D01*
X013430Y020340D01*
X013680Y020090D01*
X013930Y020340D01*
X014430Y020340D01*
X014680Y020090D01*
X014680Y019590D01*
X014430Y019340D01*
X013930Y019340D01*
X014812Y013090D02*
X014812Y012590D01*
D13*
X008034Y019749D02*
X008034Y020931D01*
X007326Y020931D01*
X007326Y019749D01*
X008034Y019749D01*
X006389Y019986D02*
X006389Y020694D01*
X006034Y021049D02*
X005326Y021049D01*
X004971Y020694D02*
X004971Y019986D01*
X005326Y019631D02*
X006034Y019631D01*
D14*
X012570Y021720D02*
X012591Y021722D01*
X012611Y021727D01*
X012630Y021736D01*
X012647Y021748D01*
X012662Y021763D01*
X012674Y021780D01*
X012683Y021799D01*
X012688Y021819D01*
X012690Y021840D01*
X012688Y021861D01*
X012683Y021881D01*
X012674Y021900D01*
X012662Y021917D01*
X012647Y021932D01*
X012630Y021944D01*
X012611Y021953D01*
X012591Y021958D01*
X012570Y021960D01*
D15*
X012547Y021329D02*
X012233Y021015D01*
X012233Y021172D02*
X012547Y021172D01*
X012547Y021015D02*
X012233Y021329D01*
X012390Y021329D02*
X012390Y021015D01*
M02*
