G75*
G70*
%OFA0B0*%
%FSLAX24Y24*%
%IPPOS*%
%LPD*%
%AMOC8*
5,1,8,0,0,1.08239X$1,22.5*
%
%ADD10OC8,0.0800*%
%ADD11C,0.0800*%
%ADD12C,0.0800*%
%ADD13C,0.0660*%
%ADD14R,0.0560X0.0847*%
%ADD15C,0.0417*%
%ADD16C,0.0420*%
%ADD17OC8,0.0417*%
D10*
X013180Y012840D03*
X013180Y013840D03*
X013180Y014840D03*
X014180Y014840D03*
X014180Y013840D03*
X014180Y012840D03*
D11*
X011380Y009340D03*
X012180Y019840D03*
X013180Y019840D03*
X014180Y019840D03*
D12*
X005550Y016840D02*
X004810Y016840D01*
X004810Y015840D02*
X005550Y015840D01*
X005550Y014840D02*
X004810Y014840D01*
X004810Y013840D02*
X005550Y013840D01*
X005550Y012840D02*
X004810Y012840D01*
X004810Y011840D02*
X005550Y011840D01*
D13*
X005230Y022240D02*
X005230Y022840D01*
X011130Y022840D02*
X011130Y022240D01*
D14*
X007411Y010690D03*
X008199Y010690D03*
X008986Y010690D03*
X009774Y010690D03*
X011349Y010690D03*
X012136Y010690D03*
X012136Y018368D03*
X007411Y018368D03*
D15*
X007880Y019140D03*
X007080Y019340D03*
X005880Y017840D03*
X004180Y017340D03*
X006180Y015140D03*
X008180Y016340D03*
X008880Y016840D03*
X009580Y016840D03*
X009280Y015340D03*
X009780Y013340D03*
X009280Y012840D03*
X008780Y012340D03*
X010880Y014240D03*
X012180Y017340D03*
X010580Y018640D03*
X008980Y021040D03*
X010680Y021340D03*
X013180Y023040D03*
X014380Y017440D03*
X014180Y010840D03*
D16*
X011380Y014640D03*
X013980Y020940D03*
D17*
X008880Y019740D03*
M02*
