G75*
G70*
%OFA0B0*%
%FSLAX24Y24*%
%IPPOS*%
%LPD*%
%AMOC8*
5,1,8,0,0,1.08239X$1,22.5*
%
%ADD10R,0.0571X0.0453*%
%ADD11R,0.0394X0.0374*%
%ADD12OC8,0.0740*%
%ADD13C,0.0740*%
%ADD14R,0.0315X0.0315*%
%ADD15C,0.0740*%
%ADD16R,0.0374X0.0394*%
%ADD17C,0.0600*%
%ADD18R,0.0433X0.0236*%
%ADD19R,0.0220X0.0520*%
%ADD20R,0.1260X0.0394*%
%ADD21R,0.0500X0.0220*%
%ADD22R,0.0220X0.0500*%
%ADD23R,0.0315X0.0354*%
%ADD24C,0.0120*%
%ADD25C,0.0357*%
%ADD26C,0.0160*%
%ADD27C,0.0360*%
%ADD28OC8,0.0357*%
D10*
X007680Y021986D03*
X007680Y022694D03*
X008680Y022694D03*
X008680Y021986D03*
D11*
X009680Y022025D03*
X009680Y022655D03*
X009680Y020655D03*
X009680Y020025D03*
X010680Y020025D03*
X010680Y020655D03*
X012980Y018655D03*
X012980Y018025D03*
X012180Y016655D03*
X012180Y016025D03*
X011180Y016155D03*
X011180Y015525D03*
X014180Y016025D03*
X014180Y016655D03*
X014180Y018025D03*
X014180Y018655D03*
X006680Y022025D03*
X006680Y022655D03*
X004680Y019155D03*
X004680Y018525D03*
X003680Y018525D03*
X003680Y019155D03*
D12*
X013180Y014840D03*
X013180Y013840D03*
X013180Y012840D03*
X014180Y012840D03*
X014180Y013840D03*
X014180Y014840D03*
D13*
X014180Y019840D03*
X013180Y019840D03*
X012180Y019840D03*
X011380Y009340D03*
D14*
X006880Y017645D03*
X006880Y018235D03*
D15*
X005550Y016840D02*
X004810Y016840D01*
X004810Y015840D02*
X005550Y015840D01*
X005550Y014840D02*
X004810Y014840D01*
X004810Y013840D02*
X005550Y013840D01*
X005550Y012840D02*
X004810Y012840D01*
X004810Y011840D02*
X005550Y011840D01*
D16*
X005565Y019040D03*
X006195Y019040D03*
D17*
X005230Y022240D02*
X005230Y022840D01*
X011130Y022840D02*
X011130Y022240D01*
D18*
X008152Y020714D03*
X008152Y020340D03*
X008152Y019966D03*
X007208Y019966D03*
X007208Y020714D03*
D19*
X012810Y021330D03*
X013180Y021330D03*
X013550Y021330D03*
X013550Y022350D03*
X013180Y022350D03*
X012810Y022350D03*
D20*
X005680Y020773D03*
X005680Y019907D03*
D21*
X006990Y016942D03*
X006990Y016627D03*
X006990Y016312D03*
X006990Y015997D03*
X006990Y015683D03*
X006990Y015368D03*
X006990Y015053D03*
X006990Y014738D03*
X010370Y014738D03*
X010370Y015053D03*
X010370Y015368D03*
X010370Y015683D03*
X010370Y015997D03*
X010370Y016312D03*
X010370Y016627D03*
X010370Y016942D03*
D22*
X009782Y017530D03*
X009467Y017530D03*
X009152Y017530D03*
X008837Y017530D03*
X008523Y017530D03*
X008208Y017530D03*
X007893Y017530D03*
X007578Y017530D03*
X007578Y014150D03*
X007893Y014150D03*
X008208Y014150D03*
X008523Y014150D03*
X008837Y014150D03*
X009152Y014150D03*
X009467Y014150D03*
X009782Y014150D03*
D23*
X012806Y016446D03*
X013180Y017273D03*
X013554Y016446D03*
D24*
X013554Y016814D01*
X013780Y017040D01*
X014080Y017040D01*
X014080Y017140D01*
X014380Y017440D01*
X014080Y017040D02*
X014180Y016940D01*
X014180Y016655D01*
X014180Y016025D02*
X014180Y015740D01*
X014080Y015640D01*
X012780Y015640D01*
X012806Y015666D01*
X012806Y016446D01*
X012180Y016655D02*
X012180Y017340D01*
X011680Y017340D02*
X011680Y018440D01*
X012280Y019040D01*
X012780Y019040D01*
X012980Y018840D01*
X012980Y018655D01*
X014180Y018655D01*
X014180Y018025D02*
X012980Y018025D01*
X012980Y017740D01*
X013180Y017540D01*
X013180Y017273D01*
X012180Y016025D02*
X012180Y015740D01*
X012280Y015640D01*
X012780Y015640D01*
X011282Y016942D02*
X011680Y017340D01*
X011282Y016942D02*
X010370Y016942D01*
X009580Y016840D02*
X009580Y016440D01*
X009080Y015940D01*
X007980Y015940D01*
X007680Y016240D01*
X007680Y016540D01*
X007593Y016627D01*
X006990Y016627D01*
X006990Y016942D02*
X006990Y017130D01*
X006880Y017240D01*
X006880Y017645D01*
X006880Y018235D02*
X006880Y018640D01*
X006480Y019040D01*
X006195Y019040D01*
X005680Y019040D02*
X005565Y019040D01*
X005580Y018940D02*
X005580Y018640D01*
X005330Y018390D01*
X005880Y017840D01*
X006480Y017240D01*
X006480Y016140D01*
X006623Y015997D01*
X006990Y015997D01*
X007323Y015997D01*
X007480Y015840D01*
X007480Y015540D01*
X007680Y015340D01*
X009280Y015340D01*
X009580Y014640D02*
X009480Y014540D01*
X009480Y014163D01*
X009467Y014150D01*
X009467Y013727D01*
X009280Y013540D01*
X009280Y012840D01*
X008780Y012340D02*
X008780Y013440D01*
X009180Y013840D01*
X009180Y014122D01*
X009152Y014150D01*
X009580Y014640D02*
X009880Y014640D01*
X010680Y013840D01*
X013180Y013840D01*
X012380Y012940D02*
X012380Y012640D01*
X012780Y012240D01*
X013980Y012240D01*
X014180Y012440D01*
X014180Y012840D01*
X014180Y011340D02*
X014180Y010840D01*
X012380Y012940D02*
X011780Y013540D01*
X010280Y013540D01*
X010080Y013740D01*
X009782Y013740D01*
X009782Y013342D01*
X009780Y013340D01*
X009782Y013740D02*
X009782Y014150D01*
X010370Y014738D02*
X010372Y014740D01*
X010780Y014740D01*
X010880Y014640D01*
X010880Y014240D01*
X011380Y014640D02*
X010967Y015053D01*
X010370Y015053D01*
X010370Y015683D02*
X011023Y015683D01*
X011180Y015525D01*
X009467Y017530D02*
X009467Y018127D01*
X009680Y018340D01*
X010480Y018340D01*
X010580Y018440D01*
X010580Y018640D01*
X010180Y019340D02*
X010180Y019525D01*
X010680Y020025D01*
X011065Y020025D01*
X011180Y020140D01*
X011180Y020940D01*
X012080Y021840D01*
X013380Y021840D01*
X013550Y022010D01*
X013550Y022350D01*
X013180Y022350D02*
X013180Y023040D01*
X012810Y021330D02*
X012810Y020910D01*
X013180Y020540D01*
X013180Y019840D01*
X013680Y020840D02*
X013880Y020840D01*
X013980Y020940D01*
X013680Y020840D02*
X013550Y020970D01*
X013550Y021330D01*
X012180Y019840D02*
X012180Y019140D01*
X012280Y019040D01*
X010680Y020655D02*
X010680Y021340D01*
X010680Y020655D02*
X009680Y020655D01*
X009680Y021440D01*
X009580Y021540D01*
X009680Y021640D01*
X009680Y022025D01*
X009580Y021540D02*
X008780Y021540D01*
X008480Y021240D01*
X007680Y021240D01*
X007580Y021140D01*
X007580Y020840D01*
X007454Y020714D01*
X007208Y020714D01*
X006880Y020340D02*
X007680Y020340D01*
X007680Y020540D01*
X007854Y020714D01*
X008152Y020714D01*
X008178Y020740D01*
X008580Y020740D01*
X008880Y021040D01*
X008980Y021040D01*
X008780Y021540D02*
X008680Y021640D01*
X008680Y021986D01*
X007680Y021986D02*
X007680Y021640D01*
X007580Y021540D01*
X006780Y021540D01*
X006680Y021440D01*
X006680Y020840D01*
X006680Y020540D01*
X006880Y020340D01*
X006706Y019966D02*
X006680Y019940D01*
X005713Y019940D01*
X005680Y019907D01*
X005680Y020773D02*
X006613Y020773D01*
X006680Y020840D01*
X006780Y021540D02*
X006680Y021640D01*
X006680Y022025D01*
X005745Y022025D01*
X005230Y022540D01*
X006706Y019966D02*
X007208Y019966D01*
X007680Y020040D02*
X007680Y020340D01*
X007680Y020040D02*
X007754Y019966D01*
X008152Y019966D01*
X008080Y019440D02*
X007180Y019440D01*
X007080Y019340D01*
X007880Y019140D02*
X007893Y019127D01*
X007893Y017530D01*
X007578Y017530D02*
X007578Y016942D01*
X008180Y016340D01*
X008580Y016840D02*
X008523Y016897D01*
X008523Y017530D01*
X008837Y017530D02*
X008837Y018497D01*
X009380Y019040D01*
X008780Y019640D01*
X008880Y019740D01*
X008280Y019240D02*
X008280Y018940D01*
X008180Y018840D01*
X008180Y017558D01*
X008208Y017530D01*
X008580Y016840D02*
X008880Y016840D01*
X009152Y017530D02*
X009152Y018312D01*
X010180Y019340D01*
X009680Y019340D02*
X009680Y020025D01*
X009680Y019340D02*
X009380Y019040D01*
X008280Y019240D02*
X008080Y019440D01*
X005980Y017440D02*
X006180Y017240D01*
X006180Y015140D01*
X006990Y015368D02*
X007308Y015368D01*
X007480Y015540D01*
X005980Y017440D02*
X005380Y017440D01*
X004680Y018140D01*
X004280Y018140D01*
X004180Y018240D01*
X004180Y019140D01*
X004195Y019155D01*
X004680Y019155D01*
X003680Y019155D01*
X003680Y018525D02*
X003680Y018040D01*
X003880Y017840D01*
X004180Y017840D01*
X005180Y016840D01*
X004180Y017340D02*
X004080Y017240D01*
X004080Y015140D01*
X004380Y014840D01*
X005180Y014840D01*
X005330Y018390D02*
X005195Y018525D01*
X004680Y018525D01*
X005580Y018940D02*
X005680Y019040D01*
D25*
X005880Y017840D03*
X007080Y019340D03*
X007880Y019140D03*
X008980Y021040D03*
X010680Y021340D03*
X010580Y018640D03*
X009580Y016840D03*
X008880Y016840D03*
X008180Y016340D03*
X009280Y015340D03*
X009780Y013340D03*
X009280Y012840D03*
X008780Y012340D03*
X010880Y014240D03*
X012180Y017340D03*
X014380Y017440D03*
X013180Y023040D03*
X006180Y015140D03*
X004180Y017340D03*
X014180Y010840D03*
D26*
X002067Y008629D02*
X001853Y008698D01*
X001671Y008831D01*
X001538Y009013D01*
X001469Y009227D01*
X001460Y009340D01*
X001460Y009396D01*
X001460Y022840D01*
X001469Y022953D01*
X001538Y023167D01*
X001671Y023349D01*
X001853Y023482D01*
X002067Y023551D01*
X002180Y023560D01*
X014180Y023560D01*
X014293Y023551D01*
X014507Y023482D01*
X014689Y023349D01*
X014822Y023167D01*
X014891Y022953D01*
X014900Y022840D01*
X014900Y009340D01*
X014891Y009227D01*
X014822Y009013D01*
X014689Y008831D01*
X014507Y008698D01*
X014293Y008629D01*
X014180Y008620D01*
X002180Y008620D01*
X002067Y008629D01*
X001981Y008657D02*
X014379Y008657D01*
X014668Y008816D02*
X001692Y008816D01*
X001567Y008974D02*
X011025Y008974D01*
X011091Y008908D02*
X010948Y009051D01*
X010870Y009239D01*
X010870Y009441D01*
X010948Y009629D01*
X011091Y009772D01*
X011279Y009850D01*
X011481Y009850D01*
X011669Y009772D01*
X011812Y009629D01*
X011890Y009441D01*
X011890Y009239D01*
X011812Y009051D01*
X011669Y008908D01*
X011481Y008830D01*
X011279Y008830D01*
X011091Y008908D01*
X010914Y009133D02*
X001500Y009133D01*
X001464Y009291D02*
X010870Y009291D01*
X010873Y009450D02*
X001460Y009450D01*
X001460Y009608D02*
X010939Y009608D01*
X011085Y009767D02*
X001460Y009767D01*
X001460Y009925D02*
X014900Y009925D01*
X014900Y009767D02*
X011675Y009767D01*
X011821Y009608D02*
X014900Y009608D01*
X014900Y009450D02*
X011887Y009450D01*
X011890Y009291D02*
X014896Y009291D01*
X014860Y009133D02*
X011846Y009133D01*
X011735Y008974D02*
X014793Y008974D01*
X014900Y010084D02*
X001460Y010084D01*
X001460Y010242D02*
X014900Y010242D01*
X014900Y010401D02*
X001460Y010401D01*
X001460Y010559D02*
X014900Y010559D01*
X014900Y010718D02*
X001460Y010718D01*
X001460Y010876D02*
X014900Y010876D01*
X014900Y011035D02*
X001460Y011035D01*
X001460Y011193D02*
X014900Y011193D01*
X014900Y011352D02*
X005803Y011352D01*
X005838Y011370D02*
X005908Y011420D01*
X005970Y011482D01*
X006020Y011552D01*
X006060Y011629D01*
X006086Y011711D01*
X006100Y011797D01*
X006100Y011810D01*
X005210Y011810D01*
X005210Y011870D01*
X006100Y011870D01*
X006100Y011883D01*
X006086Y011969D01*
X006060Y012051D01*
X006020Y012128D01*
X005970Y012198D01*
X005908Y012260D01*
X005838Y012310D01*
X005761Y012350D01*
X005726Y012361D01*
X005839Y012408D01*
X005982Y012551D01*
X006060Y012739D01*
X006060Y012941D01*
X005982Y013129D01*
X005839Y013272D01*
X005676Y013340D01*
X005839Y013408D01*
X005982Y013551D01*
X006060Y013739D01*
X006060Y013941D01*
X005982Y014129D01*
X005839Y014272D01*
X005676Y014340D01*
X005839Y014408D01*
X005982Y014551D01*
X006060Y014739D01*
X006060Y014845D01*
X006117Y014822D01*
X006243Y014822D01*
X006360Y014870D01*
X006450Y014960D01*
X006498Y015077D01*
X006498Y015203D01*
X006450Y015320D01*
X006380Y015390D01*
X006380Y015957D01*
X006397Y015940D01*
X006540Y015797D01*
X006560Y015797D01*
X006560Y015683D01*
X006990Y015683D01*
X006990Y015683D01*
X006560Y015683D01*
X006560Y015549D01*
X006572Y015503D01*
X006596Y015462D01*
X006600Y015458D01*
X006600Y014570D01*
X006682Y014488D01*
X007298Y014488D01*
X007380Y014570D01*
X007380Y015168D01*
X007390Y015168D01*
X007480Y015257D01*
X007597Y015140D01*
X009030Y015140D01*
X009100Y015070D01*
X009217Y015022D01*
X009343Y015022D01*
X009460Y015070D01*
X009550Y015160D01*
X009598Y015277D01*
X009598Y015403D01*
X009550Y015520D01*
X009460Y015610D01*
X009343Y015658D01*
X009217Y015658D01*
X009100Y015610D01*
X009030Y015540D01*
X007763Y015540D01*
X007680Y015623D01*
X007680Y015923D01*
X007563Y016040D01*
X007563Y016040D01*
X007523Y016080D01*
X007420Y016183D01*
X007420Y016312D01*
X006990Y016312D01*
X006990Y016312D01*
X007420Y016312D01*
X007420Y016427D01*
X007480Y016427D01*
X007480Y016157D01*
X007597Y016040D01*
X007897Y015740D01*
X009163Y015740D01*
X009280Y015857D01*
X009780Y016357D01*
X009780Y016590D01*
X009850Y016660D01*
X009898Y016777D01*
X009898Y016903D01*
X009850Y017020D01*
X009760Y017110D01*
X009688Y017140D01*
X009950Y017140D01*
X010032Y017222D01*
X010032Y017838D01*
X009950Y017920D01*
X009667Y017920D01*
X009667Y018045D01*
X009763Y018140D01*
X010563Y018140D01*
X010663Y018240D01*
X010780Y018357D01*
X010780Y018390D01*
X010850Y018460D01*
X010898Y018577D01*
X010898Y018703D01*
X010850Y018820D01*
X010760Y018910D01*
X010643Y018958D01*
X010517Y018958D01*
X010400Y018910D01*
X010310Y018820D01*
X010262Y018703D01*
X010262Y018577D01*
X010277Y018540D01*
X009663Y018540D01*
X010263Y019140D01*
X010380Y019257D01*
X010380Y019442D01*
X010636Y019698D01*
X010935Y019698D01*
X011017Y019780D01*
X011017Y019825D01*
X011148Y019825D01*
X011263Y019940D01*
X011380Y020057D01*
X011380Y020857D01*
X012163Y021640D01*
X012560Y021640D01*
X012560Y021012D01*
X012610Y020962D01*
X012610Y020827D01*
X012980Y020457D01*
X012980Y020309D01*
X012891Y020272D01*
X012748Y020129D01*
X012680Y019966D01*
X012612Y020129D01*
X012469Y020272D01*
X012281Y020350D01*
X012079Y020350D01*
X011891Y020272D01*
X011748Y020129D01*
X011670Y019941D01*
X011670Y019739D01*
X011748Y019551D01*
X011891Y019408D01*
X011980Y019371D01*
X011980Y019057D01*
X011997Y019040D01*
X011480Y018523D01*
X011480Y017423D01*
X011200Y017142D01*
X010728Y017142D01*
X010678Y017192D01*
X010062Y017192D01*
X009980Y017110D01*
X009980Y016222D01*
X009976Y016218D01*
X009952Y016177D01*
X009940Y016131D01*
X009940Y015997D01*
X009940Y015864D01*
X009952Y015818D01*
X009976Y015777D01*
X009980Y015773D01*
X009980Y014823D01*
X009963Y014840D01*
X009497Y014840D01*
X009397Y014740D01*
X009280Y014623D01*
X009280Y014540D01*
X007410Y014540D01*
X007328Y014458D01*
X007328Y013842D01*
X007410Y013760D01*
X008817Y013760D01*
X008580Y013523D01*
X008580Y012590D01*
X008510Y012520D01*
X008462Y012403D01*
X008462Y012277D01*
X008510Y012160D01*
X008600Y012070D01*
X008717Y012022D01*
X008843Y012022D01*
X008960Y012070D01*
X009050Y012160D01*
X009098Y012277D01*
X009098Y012403D01*
X009050Y012520D01*
X008980Y012590D01*
X008980Y012732D01*
X009010Y012660D01*
X009100Y012570D01*
X009217Y012522D01*
X009343Y012522D01*
X009460Y012570D01*
X009550Y012660D01*
X009598Y012777D01*
X009598Y012903D01*
X009550Y013020D01*
X009480Y013090D01*
X009480Y013232D01*
X009510Y013160D01*
X009600Y013070D01*
X009717Y013022D01*
X009843Y013022D01*
X009960Y013070D01*
X010050Y013160D01*
X010098Y013277D01*
X010098Y013403D01*
X010073Y013464D01*
X010197Y013340D01*
X011697Y013340D01*
X012180Y012857D01*
X012180Y012557D01*
X012297Y012440D01*
X012697Y012040D01*
X014063Y012040D01*
X014180Y012157D01*
X014353Y012330D01*
X014391Y012330D01*
X014690Y012629D01*
X014690Y013051D01*
X014401Y013340D01*
X014690Y013629D01*
X014690Y014051D01*
X014401Y014340D01*
X014690Y014629D01*
X014690Y015051D01*
X014391Y015350D01*
X013969Y015350D01*
X013708Y015090D01*
X013408Y015390D01*
X013200Y015390D01*
X013200Y014860D01*
X013160Y014860D01*
X013160Y015390D01*
X012952Y015390D01*
X012630Y015068D01*
X012630Y014860D01*
X013160Y014860D01*
X013160Y014820D01*
X012630Y014820D01*
X012630Y014612D01*
X012930Y014312D01*
X012670Y014051D01*
X012670Y014040D01*
X011130Y014040D01*
X011150Y014060D01*
X011198Y014177D01*
X011198Y014303D01*
X011152Y014415D01*
X011199Y014369D01*
X011316Y014320D01*
X011444Y014320D01*
X011561Y014369D01*
X011651Y014459D01*
X011700Y014576D01*
X011700Y014704D01*
X011651Y014821D01*
X011561Y014911D01*
X011444Y014960D01*
X011343Y014960D01*
X011105Y015198D01*
X011435Y015198D01*
X011517Y015280D01*
X011517Y015770D01*
X011472Y015815D01*
X011487Y015824D01*
X011521Y015857D01*
X011545Y015898D01*
X011557Y015944D01*
X011557Y016141D01*
X011194Y016141D01*
X011194Y016168D01*
X011557Y016168D01*
X011557Y016366D01*
X011545Y016411D01*
X011521Y016452D01*
X011487Y016486D01*
X011446Y016510D01*
X011401Y016522D01*
X011194Y016522D01*
X011194Y016168D01*
X011166Y016168D01*
X011166Y016141D01*
X010803Y016141D01*
X010803Y015944D01*
X010815Y015898D01*
X010825Y015883D01*
X010800Y015883D01*
X010800Y015997D01*
X010370Y015997D01*
X010370Y015997D01*
X009940Y015997D01*
X010370Y015997D01*
X010370Y015997D01*
X010800Y015997D01*
X010800Y016131D01*
X010788Y016177D01*
X010764Y016218D01*
X010760Y016222D01*
X010760Y016742D01*
X011365Y016742D01*
X011763Y017140D01*
X011873Y017250D01*
X011910Y017160D01*
X011980Y017090D01*
X011980Y016982D01*
X011925Y016982D01*
X011843Y016900D01*
X011843Y016410D01*
X011913Y016340D01*
X011843Y016270D01*
X011843Y015780D01*
X011925Y015698D01*
X011980Y015698D01*
X011980Y015657D01*
X012080Y015557D01*
X012197Y015440D01*
X014163Y015440D01*
X014263Y015540D01*
X014380Y015657D01*
X014380Y015698D01*
X014435Y015698D01*
X014517Y015780D01*
X014517Y016270D01*
X014447Y016340D01*
X014517Y016410D01*
X014517Y016900D01*
X014435Y016982D01*
X014380Y016982D01*
X014380Y017023D01*
X014313Y017090D01*
X014344Y017122D01*
X014443Y017122D01*
X014560Y017170D01*
X014650Y017260D01*
X014698Y017377D01*
X014698Y017503D01*
X014650Y017620D01*
X014560Y017710D01*
X014480Y017743D01*
X014517Y017780D01*
X014517Y018270D01*
X014447Y018340D01*
X014517Y018410D01*
X014517Y018900D01*
X014435Y018982D01*
X013925Y018982D01*
X013843Y018900D01*
X013843Y018855D01*
X013317Y018855D01*
X013317Y018900D01*
X013235Y018982D01*
X013121Y018982D01*
X012980Y019123D01*
X012863Y019240D01*
X012380Y019240D01*
X012380Y019371D01*
X012469Y019408D01*
X012612Y019551D01*
X012680Y019714D01*
X012748Y019551D01*
X012891Y019408D01*
X013079Y019330D01*
X013281Y019330D01*
X013469Y019408D01*
X013612Y019551D01*
X013659Y019664D01*
X013670Y019629D01*
X013710Y019552D01*
X013760Y019482D01*
X013822Y019420D01*
X013892Y019370D01*
X013969Y019330D01*
X014051Y019304D01*
X014137Y019290D01*
X014160Y019290D01*
X014160Y019820D01*
X014200Y019820D01*
X014200Y019860D01*
X014160Y019860D01*
X014160Y020390D01*
X014137Y020390D01*
X014051Y020376D01*
X013969Y020350D01*
X013892Y020310D01*
X013822Y020260D01*
X013760Y020198D01*
X013710Y020128D01*
X013670Y020051D01*
X013659Y020016D01*
X013612Y020129D01*
X013469Y020272D01*
X013380Y020309D01*
X013380Y020623D01*
X013113Y020890D01*
X013180Y020890D01*
X013314Y020890D01*
X013350Y020900D01*
X013350Y020887D01*
X013480Y020757D01*
X013597Y020640D01*
X013868Y020640D01*
X013916Y020620D01*
X014044Y020620D01*
X014161Y020669D01*
X014251Y020759D01*
X014300Y020876D01*
X014300Y021004D01*
X014251Y021121D01*
X014161Y021211D01*
X014044Y021260D01*
X013916Y021260D01*
X013800Y021212D01*
X013800Y021648D01*
X013718Y021730D01*
X013553Y021730D01*
X013750Y021927D01*
X013750Y021982D01*
X013800Y022032D01*
X013800Y022668D01*
X013718Y022750D01*
X013382Y022750D01*
X013380Y022748D01*
X013380Y022790D01*
X013450Y022860D01*
X013498Y022977D01*
X013498Y023103D01*
X013450Y023220D01*
X013360Y023310D01*
X013243Y023358D01*
X013117Y023358D01*
X013000Y023310D01*
X012910Y023220D01*
X012862Y023103D01*
X012862Y022977D01*
X012910Y022860D01*
X012980Y022790D01*
X012980Y022780D01*
X012944Y022790D01*
X012810Y022790D01*
X012810Y022350D01*
X012810Y022350D01*
X012810Y022350D01*
X012520Y022350D01*
X012520Y022634D01*
X012532Y022679D01*
X012556Y022721D01*
X012589Y022754D01*
X012631Y022778D01*
X012676Y022790D01*
X012810Y022790D01*
X012810Y022350D01*
X012520Y022350D01*
X012520Y022066D01*
X012527Y022040D01*
X011997Y022040D01*
X011880Y021923D01*
X010980Y021023D01*
X010980Y020937D01*
X010935Y020982D01*
X010880Y020982D01*
X010880Y021090D01*
X010950Y021160D01*
X010998Y021277D01*
X010998Y021403D01*
X010950Y021520D01*
X010860Y021610D01*
X010743Y021658D01*
X010617Y021658D01*
X010500Y021610D01*
X010410Y021520D01*
X010362Y021403D01*
X010362Y021277D01*
X010410Y021160D01*
X010480Y021090D01*
X010480Y020982D01*
X010425Y020982D01*
X010343Y020900D01*
X010343Y020855D01*
X010017Y020855D01*
X010017Y020900D01*
X009935Y020982D01*
X009880Y020982D01*
X009880Y021523D01*
X009863Y021540D01*
X009880Y021557D01*
X009880Y021698D01*
X009935Y021698D01*
X010017Y021780D01*
X010017Y022270D01*
X009972Y022315D01*
X009987Y022324D01*
X010021Y022357D01*
X010045Y022398D01*
X010057Y022444D01*
X010057Y022641D01*
X009694Y022641D01*
X009694Y022668D01*
X010057Y022668D01*
X010057Y022866D01*
X010045Y022911D01*
X010021Y022952D01*
X009987Y022986D01*
X009946Y023010D01*
X009901Y023022D01*
X009694Y023022D01*
X009694Y022668D01*
X009666Y022668D01*
X009666Y022641D01*
X009303Y022641D01*
X009303Y022444D01*
X009315Y022398D01*
X009339Y022357D01*
X009373Y022324D01*
X009388Y022315D01*
X009343Y022270D01*
X009343Y021780D01*
X009383Y021740D01*
X009105Y021740D01*
X009105Y022270D01*
X009060Y022315D01*
X009076Y022324D01*
X009109Y022357D01*
X009133Y022398D01*
X009145Y022444D01*
X009145Y022661D01*
X008713Y022661D01*
X008713Y022728D01*
X008647Y022728D01*
X008647Y023101D01*
X008371Y023101D01*
X008325Y023088D01*
X008284Y023065D01*
X008251Y023031D01*
X008227Y022990D01*
X008215Y022944D01*
X008215Y022728D01*
X008647Y022728D01*
X008647Y022661D01*
X008215Y022661D01*
X008215Y022444D01*
X008227Y022398D01*
X008251Y022357D01*
X008284Y022324D01*
X008300Y022315D01*
X008255Y022270D01*
X008255Y021701D01*
X008337Y021619D01*
X008480Y021619D01*
X008480Y021557D01*
X008497Y021540D01*
X008397Y021440D01*
X007763Y021440D01*
X007780Y021457D01*
X007780Y021457D01*
X007880Y021557D01*
X007880Y021619D01*
X008023Y021619D01*
X008105Y021701D01*
X008105Y022270D01*
X008060Y022315D01*
X008076Y022324D01*
X008109Y022357D01*
X008133Y022398D01*
X008145Y022444D01*
X008145Y022661D01*
X007713Y022661D01*
X007713Y022728D01*
X007647Y022728D01*
X007647Y023101D01*
X007371Y023101D01*
X007325Y023088D01*
X007284Y023065D01*
X007251Y023031D01*
X007227Y022990D01*
X007215Y022944D01*
X007215Y022728D01*
X007647Y022728D01*
X007647Y022661D01*
X007215Y022661D01*
X007215Y022444D01*
X007227Y022398D01*
X007251Y022357D01*
X007284Y022324D01*
X007300Y022315D01*
X007255Y022270D01*
X007255Y021740D01*
X006977Y021740D01*
X007017Y021780D01*
X007017Y022270D01*
X006972Y022315D01*
X006987Y022324D01*
X007021Y022357D01*
X007045Y022398D01*
X007057Y022444D01*
X007057Y022641D01*
X006694Y022641D01*
X006694Y022668D01*
X007057Y022668D01*
X007057Y022866D01*
X007045Y022911D01*
X007021Y022952D01*
X006987Y022986D01*
X006946Y023010D01*
X006901Y023022D01*
X006694Y023022D01*
X006694Y022668D01*
X006666Y022668D01*
X006666Y022641D01*
X006303Y022641D01*
X006303Y022444D01*
X006315Y022398D01*
X006339Y022357D01*
X006373Y022324D01*
X006388Y022315D01*
X006343Y022270D01*
X006343Y022225D01*
X005828Y022225D01*
X005670Y022383D01*
X005670Y022928D01*
X005603Y023089D01*
X005479Y023213D01*
X005318Y023280D01*
X005142Y023280D01*
X004981Y023213D01*
X004857Y023089D01*
X004790Y022928D01*
X004790Y022152D01*
X004857Y021991D01*
X004981Y021867D01*
X005142Y021800D01*
X005318Y021800D01*
X005479Y021867D01*
X005550Y021937D01*
X005662Y021825D01*
X006343Y021825D01*
X006343Y021780D01*
X006425Y021698D01*
X006480Y021698D01*
X006480Y021557D01*
X006497Y021540D01*
X006480Y021523D01*
X006480Y020973D01*
X006450Y020973D01*
X006450Y021028D01*
X006368Y021110D01*
X004992Y021110D01*
X004910Y021028D01*
X004910Y020518D01*
X004992Y020436D01*
X006368Y020436D01*
X006450Y020518D01*
X006450Y020573D01*
X006480Y020573D01*
X006480Y020457D01*
X006680Y020257D01*
X006771Y020166D01*
X006623Y020166D01*
X006597Y020140D01*
X006450Y020140D01*
X006450Y020162D01*
X006368Y020244D01*
X004992Y020244D01*
X004910Y020162D01*
X004910Y019652D01*
X004992Y019570D01*
X006368Y019570D01*
X006450Y019652D01*
X006450Y019740D01*
X006763Y019740D01*
X006789Y019766D01*
X006875Y019766D01*
X006933Y019708D01*
X007482Y019708D01*
X007564Y019790D01*
X007564Y019873D01*
X007597Y019840D01*
X007671Y019766D01*
X007820Y019766D01*
X007878Y019708D01*
X008427Y019708D01*
X008509Y019790D01*
X008509Y020107D01*
X008513Y020111D01*
X008537Y020152D01*
X008549Y020198D01*
X008549Y020340D01*
X008549Y020482D01*
X008537Y020528D01*
X008530Y020540D01*
X008663Y020540D01*
X008780Y020657D01*
X008866Y020743D01*
X008917Y020722D01*
X009043Y020722D01*
X009160Y020770D01*
X009250Y020860D01*
X009298Y020977D01*
X009298Y021103D01*
X009250Y021220D01*
X009160Y021310D01*
X009088Y021340D01*
X009480Y021340D01*
X009480Y020982D01*
X009425Y020982D01*
X009343Y020900D01*
X009343Y020410D01*
X009413Y020340D01*
X009343Y020270D01*
X009343Y019780D01*
X009425Y019698D01*
X009480Y019698D01*
X009480Y019423D01*
X009380Y019323D01*
X009147Y019556D01*
X009198Y019608D01*
X009198Y019872D01*
X009012Y020058D01*
X008748Y020058D01*
X008562Y019872D01*
X008562Y019608D01*
X008580Y019590D01*
X008580Y019557D01*
X009097Y019040D01*
X008637Y018580D01*
X008637Y017920D01*
X008380Y017920D01*
X008380Y018757D01*
X008480Y018857D01*
X008480Y019323D01*
X008280Y019523D01*
X008163Y019640D01*
X007188Y019640D01*
X007143Y019658D01*
X007017Y019658D01*
X006900Y019610D01*
X006810Y019520D01*
X006762Y019403D01*
X006762Y019277D01*
X006810Y019160D01*
X006900Y019070D01*
X007017Y019022D01*
X007143Y019022D01*
X007260Y019070D01*
X007350Y019160D01*
X007383Y019240D01*
X007577Y019240D01*
X007562Y019203D01*
X007562Y019077D01*
X007610Y018960D01*
X007693Y018877D01*
X007693Y017920D01*
X007410Y017920D01*
X007328Y017838D01*
X007328Y017222D01*
X007378Y017172D01*
X007378Y017113D01*
X007298Y017192D01*
X007190Y017192D01*
X007190Y017213D01*
X007080Y017323D01*
X007080Y017347D01*
X007095Y017347D01*
X007177Y017429D01*
X007177Y017860D01*
X007098Y017940D01*
X007177Y018020D01*
X007177Y018451D01*
X007095Y018533D01*
X007080Y018533D01*
X007080Y018723D01*
X006963Y018840D01*
X006563Y019240D01*
X006522Y019240D01*
X006522Y019295D01*
X006440Y019377D01*
X005950Y019377D01*
X005880Y019307D01*
X005810Y019377D01*
X005320Y019377D01*
X005238Y019295D01*
X005238Y018785D01*
X005320Y018703D01*
X005360Y018703D01*
X005330Y018673D01*
X005278Y018725D01*
X005017Y018725D01*
X005017Y018770D01*
X004947Y018840D01*
X005017Y018910D01*
X005017Y019400D01*
X004935Y019482D01*
X004425Y019482D01*
X004343Y019400D01*
X004343Y019355D01*
X004017Y019355D01*
X004017Y019400D01*
X003935Y019482D01*
X003425Y019482D01*
X003343Y019400D01*
X003343Y018910D01*
X003413Y018840D01*
X003343Y018770D01*
X003343Y018280D01*
X003425Y018198D01*
X003480Y018198D01*
X003480Y017957D01*
X003680Y017757D01*
X003797Y017640D01*
X004072Y017640D01*
X004000Y017610D01*
X003910Y017520D01*
X003862Y017403D01*
X003862Y017277D01*
X003880Y017232D01*
X003880Y015057D01*
X003997Y014940D01*
X004297Y014640D01*
X004341Y014640D01*
X004378Y014551D01*
X004521Y014408D01*
X004684Y014340D01*
X004521Y014272D01*
X004378Y014129D01*
X004300Y013941D01*
X004300Y013739D01*
X004378Y013551D01*
X004521Y013408D01*
X004684Y013340D01*
X004521Y013272D01*
X004378Y013129D01*
X004300Y012941D01*
X004300Y012739D01*
X004378Y012551D01*
X004521Y012408D01*
X004634Y012361D01*
X004599Y012350D01*
X004522Y012310D01*
X004452Y012260D01*
X004390Y012198D01*
X004340Y012128D01*
X004300Y012051D01*
X004274Y011969D01*
X004260Y011883D01*
X004260Y011870D01*
X005150Y011870D01*
X005150Y011810D01*
X005210Y011810D01*
X005210Y011290D01*
X005593Y011290D01*
X005679Y011304D01*
X005761Y011330D01*
X005838Y011370D01*
X005990Y011510D02*
X014900Y011510D01*
X014900Y011669D02*
X006073Y011669D01*
X006081Y011986D02*
X014900Y011986D01*
X014900Y012144D02*
X014167Y012144D01*
X014325Y012303D02*
X014900Y012303D01*
X014900Y012461D02*
X014522Y012461D01*
X014681Y012620D02*
X014900Y012620D01*
X014900Y012778D02*
X014690Y012778D01*
X014690Y012937D02*
X014900Y012937D01*
X014900Y013095D02*
X014646Y013095D01*
X014488Y013254D02*
X014900Y013254D01*
X014900Y013412D02*
X014473Y013412D01*
X014632Y013571D02*
X014900Y013571D01*
X014900Y013729D02*
X014690Y013729D01*
X014690Y013888D02*
X014900Y013888D01*
X014900Y014046D02*
X014690Y014046D01*
X014537Y014205D02*
X014900Y014205D01*
X014900Y014363D02*
X014424Y014363D01*
X014583Y014522D02*
X014900Y014522D01*
X014900Y014680D02*
X014690Y014680D01*
X014690Y014839D02*
X014900Y014839D01*
X014900Y014997D02*
X014690Y014997D01*
X014586Y015156D02*
X014900Y015156D01*
X014900Y015314D02*
X014427Y015314D01*
X014354Y015631D02*
X014900Y015631D01*
X014900Y015473D02*
X014195Y015473D01*
X013933Y015314D02*
X013484Y015314D01*
X013642Y015156D02*
X013774Y015156D01*
X013200Y015156D02*
X013160Y015156D01*
X013160Y015314D02*
X013200Y015314D01*
X013200Y014997D02*
X013160Y014997D01*
X013160Y014839D02*
X011634Y014839D01*
X011700Y014680D02*
X012630Y014680D01*
X012721Y014522D02*
X011677Y014522D01*
X011547Y014363D02*
X012879Y014363D01*
X012823Y014205D02*
X011198Y014205D01*
X011213Y014363D02*
X011174Y014363D01*
X011136Y014046D02*
X012670Y014046D01*
X012630Y014997D02*
X011306Y014997D01*
X011147Y015156D02*
X012718Y015156D01*
X012876Y015314D02*
X011517Y015314D01*
X011517Y015473D02*
X012165Y015473D01*
X012006Y015631D02*
X011517Y015631D01*
X011497Y015790D02*
X011843Y015790D01*
X011843Y015948D02*
X011557Y015948D01*
X011557Y016107D02*
X011843Y016107D01*
X011843Y016265D02*
X011557Y016265D01*
X011538Y016424D02*
X011843Y016424D01*
X011843Y016582D02*
X010760Y016582D01*
X010873Y016486D02*
X010839Y016452D01*
X010815Y016411D01*
X010803Y016366D01*
X010803Y016168D01*
X011166Y016168D01*
X011166Y016522D01*
X010959Y016522D01*
X010914Y016510D01*
X010873Y016486D01*
X010822Y016424D02*
X010760Y016424D01*
X010760Y016265D02*
X010803Y016265D01*
X010800Y016107D02*
X010803Y016107D01*
X010800Y015948D02*
X010803Y015948D01*
X011166Y016265D02*
X011194Y016265D01*
X011194Y016424D02*
X011166Y016424D01*
X010760Y016741D02*
X011843Y016741D01*
X011843Y016899D02*
X011522Y016899D01*
X011680Y017058D02*
X011980Y017058D01*
X011887Y017216D02*
X011839Y017216D01*
X011432Y017375D02*
X010032Y017375D01*
X010032Y017533D02*
X011480Y017533D01*
X011480Y017692D02*
X010032Y017692D01*
X010020Y017850D02*
X011480Y017850D01*
X011480Y018009D02*
X009667Y018009D01*
X009765Y018643D02*
X010262Y018643D01*
X010302Y018801D02*
X009924Y018801D01*
X010082Y018960D02*
X011917Y018960D01*
X011980Y019118D02*
X010241Y019118D01*
X010263Y019140D02*
X010263Y019140D01*
X010380Y019277D02*
X011980Y019277D01*
X011864Y019435D02*
X010380Y019435D01*
X010531Y019594D02*
X011730Y019594D01*
X011670Y019752D02*
X010989Y019752D01*
X011233Y019911D02*
X011670Y019911D01*
X011723Y020069D02*
X011380Y020069D01*
X011380Y020228D02*
X011846Y020228D01*
X011380Y020386D02*
X012980Y020386D01*
X012893Y020545D02*
X011380Y020545D01*
X011380Y020703D02*
X012734Y020703D01*
X012610Y020862D02*
X011384Y020862D01*
X011543Y021020D02*
X012560Y021020D01*
X012560Y021179D02*
X011701Y021179D01*
X011860Y021337D02*
X012560Y021337D01*
X012560Y021496D02*
X012018Y021496D01*
X011770Y021813D02*
X011348Y021813D01*
X011382Y021829D02*
X011443Y021874D01*
X011496Y021927D01*
X011541Y021988D01*
X011575Y022056D01*
X011598Y022128D01*
X011610Y022202D01*
X011610Y022520D01*
X011150Y022520D01*
X011150Y022560D01*
X011610Y022560D01*
X011610Y022878D01*
X011598Y022952D01*
X011575Y023024D01*
X011541Y023092D01*
X011496Y023153D01*
X011443Y023206D01*
X011382Y023251D01*
X011314Y023285D01*
X011242Y023308D01*
X011168Y023320D01*
X011150Y023320D01*
X011150Y022560D01*
X011110Y022560D01*
X011110Y023320D01*
X011092Y023320D01*
X011018Y023308D01*
X010946Y023285D01*
X010878Y023251D01*
X010817Y023206D01*
X010764Y023153D01*
X010719Y023092D01*
X010685Y023024D01*
X010662Y022952D01*
X010650Y022878D01*
X010650Y022560D01*
X011110Y022560D01*
X011110Y022520D01*
X011150Y022520D01*
X011150Y021760D01*
X011168Y021760D01*
X011242Y021772D01*
X011314Y021795D01*
X011382Y021829D01*
X011528Y021971D02*
X011928Y021971D01*
X011598Y022130D02*
X012520Y022130D01*
X012520Y022288D02*
X011610Y022288D01*
X011610Y022447D02*
X012520Y022447D01*
X012520Y022605D02*
X011610Y022605D01*
X011610Y022764D02*
X012606Y022764D01*
X012810Y022764D02*
X012810Y022764D01*
X012810Y022605D02*
X012810Y022605D01*
X012810Y022447D02*
X012810Y022447D01*
X012884Y022922D02*
X011603Y022922D01*
X011546Y023081D02*
X012862Y023081D01*
X012929Y023239D02*
X011397Y023239D01*
X011150Y023239D02*
X011110Y023239D01*
X011110Y023081D02*
X011150Y023081D01*
X011150Y022922D02*
X011110Y022922D01*
X011110Y022764D02*
X011150Y022764D01*
X011150Y022605D02*
X011110Y022605D01*
X011110Y022520D02*
X010650Y022520D01*
X010650Y022202D01*
X010662Y022128D01*
X010685Y022056D01*
X010719Y021988D01*
X010764Y021927D01*
X010817Y021874D01*
X010878Y021829D01*
X010946Y021795D01*
X011018Y021772D01*
X011092Y021760D01*
X011110Y021760D01*
X011110Y022520D01*
X011110Y022447D02*
X011150Y022447D01*
X011150Y022288D02*
X011110Y022288D01*
X011110Y022130D02*
X011150Y022130D01*
X011150Y021971D02*
X011110Y021971D01*
X011110Y021813D02*
X011150Y021813D01*
X010912Y021813D02*
X010017Y021813D01*
X010017Y021971D02*
X010732Y021971D01*
X010662Y022130D02*
X010017Y022130D01*
X009999Y022288D02*
X010650Y022288D01*
X010650Y022447D02*
X010057Y022447D01*
X010057Y022605D02*
X010650Y022605D01*
X010650Y022764D02*
X010057Y022764D01*
X010038Y022922D02*
X010657Y022922D01*
X010714Y023081D02*
X009049Y023081D01*
X009035Y023088D02*
X008989Y023101D01*
X008713Y023101D01*
X008713Y022728D01*
X009145Y022728D01*
X009145Y022944D01*
X009133Y022990D01*
X009109Y023031D01*
X009076Y023065D01*
X009035Y023088D01*
X009145Y022922D02*
X009322Y022922D01*
X009315Y022911D02*
X009303Y022866D01*
X009303Y022668D01*
X009666Y022668D01*
X009666Y023022D01*
X009459Y023022D01*
X009414Y023010D01*
X009373Y022986D01*
X009339Y022952D01*
X009315Y022911D01*
X009303Y022764D02*
X009145Y022764D01*
X009145Y022605D02*
X009303Y022605D01*
X009303Y022447D02*
X009145Y022447D01*
X009087Y022288D02*
X009361Y022288D01*
X009343Y022130D02*
X009105Y022130D01*
X009105Y021971D02*
X009343Y021971D01*
X009343Y021813D02*
X009105Y021813D01*
X009095Y021337D02*
X009480Y021337D01*
X009480Y021179D02*
X009267Y021179D01*
X009298Y021020D02*
X009480Y021020D01*
X009343Y020862D02*
X009251Y020862D01*
X009343Y020703D02*
X008826Y020703D01*
X008667Y020545D02*
X009343Y020545D01*
X009367Y020386D02*
X008549Y020386D01*
X008549Y020340D02*
X008152Y020340D01*
X008152Y020340D01*
X008549Y020340D01*
X008549Y020228D02*
X009343Y020228D01*
X009343Y020069D02*
X008509Y020069D01*
X008509Y019911D02*
X008600Y019911D01*
X008562Y019752D02*
X008471Y019752D01*
X008576Y019594D02*
X008209Y019594D01*
X008368Y019435D02*
X008702Y019435D01*
X008861Y019277D02*
X008480Y019277D01*
X008480Y019118D02*
X009019Y019118D01*
X009017Y018960D02*
X008480Y018960D01*
X008424Y018801D02*
X008858Y018801D01*
X008700Y018643D02*
X008380Y018643D01*
X008380Y018484D02*
X008637Y018484D01*
X008637Y018326D02*
X008380Y018326D01*
X008380Y018167D02*
X008637Y018167D01*
X008637Y018009D02*
X008380Y018009D01*
X007693Y018009D02*
X007166Y018009D01*
X007177Y018167D02*
X007693Y018167D01*
X007693Y018326D02*
X007177Y018326D01*
X007144Y018484D02*
X007693Y018484D01*
X007693Y018643D02*
X007080Y018643D01*
X007002Y018801D02*
X007693Y018801D01*
X007610Y018960D02*
X006843Y018960D01*
X006852Y019118D02*
X006685Y019118D01*
X006762Y019277D02*
X006522Y019277D01*
X006775Y019435D02*
X004982Y019435D01*
X004969Y019594D02*
X001460Y019594D01*
X001460Y019752D02*
X004910Y019752D01*
X004910Y019911D02*
X001460Y019911D01*
X001460Y020069D02*
X004910Y020069D01*
X004976Y020228D02*
X001460Y020228D01*
X001460Y020386D02*
X006551Y020386D01*
X006480Y020545D02*
X006450Y020545D01*
X006384Y020228D02*
X006710Y020228D01*
X006775Y019752D02*
X006889Y019752D01*
X006883Y019594D02*
X006391Y019594D01*
X007308Y019118D02*
X007562Y019118D01*
X007526Y019752D02*
X007834Y019752D01*
X007818Y021496D02*
X008453Y021496D01*
X008302Y021654D02*
X008058Y021654D01*
X008105Y021813D02*
X008255Y021813D01*
X008255Y021971D02*
X008105Y021971D01*
X008105Y022130D02*
X008255Y022130D01*
X008273Y022288D02*
X008087Y022288D01*
X008145Y022447D02*
X008215Y022447D01*
X008215Y022605D02*
X008145Y022605D01*
X008145Y022728D02*
X008145Y022944D01*
X008133Y022990D01*
X008109Y023031D01*
X008076Y023065D01*
X008035Y023088D01*
X007989Y023101D01*
X007713Y023101D01*
X007713Y022728D01*
X008145Y022728D01*
X008145Y022764D02*
X008215Y022764D01*
X008215Y022922D02*
X008145Y022922D01*
X008049Y023081D02*
X008311Y023081D01*
X008647Y023081D02*
X008713Y023081D01*
X008713Y022922D02*
X008647Y022922D01*
X008647Y022764D02*
X008713Y022764D01*
X009666Y022764D02*
X009694Y022764D01*
X009694Y022922D02*
X009666Y022922D01*
X009880Y021654D02*
X010606Y021654D01*
X010754Y021654D02*
X011611Y021654D01*
X011453Y021496D02*
X010960Y021496D01*
X010998Y021337D02*
X011294Y021337D01*
X011136Y021179D02*
X010958Y021179D01*
X010980Y021020D02*
X010880Y021020D01*
X010480Y021020D02*
X009880Y021020D01*
X009880Y021179D02*
X010402Y021179D01*
X010362Y021337D02*
X009880Y021337D01*
X009880Y021496D02*
X010400Y021496D01*
X010343Y020862D02*
X010017Y020862D01*
X009343Y019911D02*
X009160Y019911D01*
X009198Y019752D02*
X009371Y019752D01*
X009480Y019594D02*
X009184Y019594D01*
X009268Y019435D02*
X009480Y019435D01*
X010590Y018167D02*
X011480Y018167D01*
X011480Y018326D02*
X010748Y018326D01*
X010860Y018484D02*
X011480Y018484D01*
X011600Y018643D02*
X010898Y018643D01*
X010858Y018801D02*
X011758Y018801D01*
X012380Y019277D02*
X014900Y019277D01*
X014900Y019435D02*
X014553Y019435D01*
X014538Y019420D02*
X014600Y019482D01*
X014650Y019552D01*
X014690Y019629D01*
X014716Y019711D01*
X014730Y019797D01*
X014730Y019820D01*
X014200Y019820D01*
X014200Y019290D01*
X014223Y019290D01*
X014309Y019304D01*
X014391Y019330D01*
X014468Y019370D01*
X014538Y019420D01*
X014672Y019594D02*
X014900Y019594D01*
X014900Y019752D02*
X014723Y019752D01*
X014730Y019860D02*
X014730Y019883D01*
X014716Y019969D01*
X014690Y020051D01*
X014650Y020128D01*
X014600Y020198D01*
X014538Y020260D01*
X014468Y020310D01*
X014391Y020350D01*
X014309Y020376D01*
X014223Y020390D01*
X014200Y020390D01*
X014200Y019860D01*
X014730Y019860D01*
X014726Y019911D02*
X014900Y019911D01*
X014900Y020069D02*
X014681Y020069D01*
X014570Y020228D02*
X014900Y020228D01*
X014900Y020386D02*
X014248Y020386D01*
X014200Y020386D02*
X014160Y020386D01*
X014112Y020386D02*
X013380Y020386D01*
X013380Y020545D02*
X014900Y020545D01*
X014900Y020703D02*
X014196Y020703D01*
X014294Y020862D02*
X014900Y020862D01*
X014900Y021020D02*
X014293Y021020D01*
X014194Y021179D02*
X014900Y021179D01*
X014900Y021337D02*
X013800Y021337D01*
X013800Y021496D02*
X014900Y021496D01*
X014900Y021654D02*
X013794Y021654D01*
X013635Y021813D02*
X014900Y021813D01*
X014900Y021971D02*
X013750Y021971D01*
X013800Y022130D02*
X014900Y022130D01*
X014900Y022288D02*
X013800Y022288D01*
X013800Y022447D02*
X014900Y022447D01*
X014900Y022605D02*
X013800Y022605D01*
X013380Y022764D02*
X014900Y022764D01*
X014894Y022922D02*
X013476Y022922D01*
X013498Y023081D02*
X014850Y023081D01*
X014769Y023239D02*
X013431Y023239D01*
X014231Y023556D02*
X002129Y023556D01*
X001738Y023398D02*
X014622Y023398D01*
X013180Y021330D02*
X013180Y020890D01*
X013180Y021330D01*
X013180Y021330D01*
X013180Y021179D02*
X013180Y021179D01*
X013180Y021020D02*
X013180Y021020D01*
X013141Y020862D02*
X013376Y020862D01*
X013300Y020703D02*
X013534Y020703D01*
X013514Y020228D02*
X013790Y020228D01*
X013679Y020069D02*
X013637Y020069D01*
X013630Y019594D02*
X013688Y019594D01*
X013807Y019435D02*
X013496Y019435D01*
X013257Y018960D02*
X013903Y018960D01*
X014160Y019435D02*
X014200Y019435D01*
X014200Y019594D02*
X014160Y019594D01*
X014160Y019752D02*
X014200Y019752D01*
X014200Y019911D02*
X014160Y019911D01*
X014160Y020069D02*
X014200Y020069D01*
X014200Y020228D02*
X014160Y020228D01*
X014457Y018960D02*
X014900Y018960D01*
X014900Y019118D02*
X012985Y019118D01*
X012864Y019435D02*
X012496Y019435D01*
X012630Y019594D02*
X012730Y019594D01*
X012723Y020069D02*
X012637Y020069D01*
X012514Y020228D02*
X012846Y020228D01*
X014517Y018801D02*
X014900Y018801D01*
X014900Y018643D02*
X014517Y018643D01*
X014517Y018484D02*
X014900Y018484D01*
X014900Y018326D02*
X014461Y018326D01*
X014517Y018167D02*
X014900Y018167D01*
X014900Y018009D02*
X014517Y018009D01*
X014517Y017850D02*
X014900Y017850D01*
X014900Y017692D02*
X014579Y017692D01*
X014686Y017533D02*
X014900Y017533D01*
X014900Y017375D02*
X014698Y017375D01*
X014606Y017216D02*
X014900Y017216D01*
X014900Y017058D02*
X014345Y017058D01*
X014517Y016899D02*
X014900Y016899D01*
X014900Y016741D02*
X014517Y016741D01*
X014517Y016582D02*
X014900Y016582D01*
X014900Y016424D02*
X014517Y016424D01*
X014517Y016265D02*
X014900Y016265D01*
X014900Y016107D02*
X014517Y016107D01*
X014517Y015948D02*
X014900Y015948D01*
X014900Y015790D02*
X014517Y015790D01*
X012180Y012778D02*
X009598Y012778D01*
X009585Y012937D02*
X012101Y012937D01*
X011942Y013095D02*
X009985Y013095D01*
X010089Y013254D02*
X011784Y013254D01*
X012180Y012620D02*
X009510Y012620D01*
X009480Y013095D02*
X009575Y013095D01*
X010095Y013412D02*
X010125Y013412D01*
X009337Y014680D02*
X007380Y014680D01*
X007380Y014839D02*
X009496Y014839D01*
X009397Y014740D02*
X009397Y014740D01*
X009546Y015156D02*
X009980Y015156D01*
X009980Y015314D02*
X009598Y015314D01*
X009570Y015473D02*
X009980Y015473D01*
X009980Y015631D02*
X009410Y015631D01*
X009212Y015790D02*
X009969Y015790D01*
X009940Y015948D02*
X009371Y015948D01*
X009529Y016107D02*
X009940Y016107D01*
X009980Y016265D02*
X009688Y016265D01*
X009780Y016424D02*
X009980Y016424D01*
X009980Y016582D02*
X009780Y016582D01*
X009883Y016741D02*
X009980Y016741D01*
X009980Y016899D02*
X009898Y016899D01*
X009980Y017058D02*
X009813Y017058D01*
X010026Y017216D02*
X011273Y017216D01*
X009980Y014997D02*
X007380Y014997D01*
X007380Y015156D02*
X007582Y015156D01*
X007680Y015631D02*
X009150Y015631D01*
X009964Y014839D02*
X009980Y014839D01*
X008786Y013729D02*
X006056Y013729D01*
X006060Y013888D02*
X007328Y013888D01*
X007328Y014046D02*
X006017Y014046D01*
X005907Y014205D02*
X007328Y014205D01*
X007328Y014363D02*
X005731Y014363D01*
X005953Y014522D02*
X006648Y014522D01*
X006600Y014680D02*
X006036Y014680D01*
X006060Y014839D02*
X006076Y014839D01*
X006284Y014839D02*
X006600Y014839D01*
X006600Y014997D02*
X006465Y014997D01*
X006498Y015156D02*
X006600Y015156D01*
X006600Y015314D02*
X006453Y015314D01*
X006380Y015473D02*
X006590Y015473D01*
X006560Y015631D02*
X006380Y015631D01*
X006380Y015790D02*
X006560Y015790D01*
X006389Y015948D02*
X006380Y015948D01*
X007187Y017216D02*
X007334Y017216D01*
X007328Y017375D02*
X007123Y017375D01*
X007177Y017533D02*
X007328Y017533D01*
X007328Y017692D02*
X007177Y017692D01*
X007177Y017850D02*
X007340Y017850D01*
X007420Y016424D02*
X007480Y016424D01*
X007480Y016265D02*
X007420Y016265D01*
X007496Y016107D02*
X007531Y016107D01*
X007523Y016080D02*
X007523Y016080D01*
X007655Y015948D02*
X007689Y015948D01*
X007680Y015790D02*
X007848Y015790D01*
X007391Y014522D02*
X007332Y014522D01*
X008628Y013571D02*
X005990Y013571D01*
X005843Y013412D02*
X008580Y013412D01*
X008580Y013254D02*
X005858Y013254D01*
X005996Y013095D02*
X008580Y013095D01*
X008580Y012937D02*
X006060Y012937D01*
X006060Y012778D02*
X008580Y012778D01*
X008580Y012620D02*
X006011Y012620D01*
X005892Y012461D02*
X008485Y012461D01*
X008462Y012303D02*
X005849Y012303D01*
X006009Y012144D02*
X008526Y012144D01*
X009034Y012144D02*
X012593Y012144D01*
X012435Y012303D02*
X009098Y012303D01*
X009075Y012461D02*
X012276Y012461D01*
X014900Y011827D02*
X005210Y011827D01*
X005150Y011827D02*
X001460Y011827D01*
X001460Y011669D02*
X004287Y011669D01*
X004300Y011629D02*
X004340Y011552D01*
X004390Y011482D01*
X004452Y011420D01*
X004522Y011370D01*
X004599Y011330D01*
X004681Y011304D01*
X004767Y011290D01*
X005150Y011290D01*
X005150Y011810D01*
X004260Y011810D01*
X004260Y011797D01*
X004274Y011711D01*
X004300Y011629D01*
X004370Y011510D02*
X001460Y011510D01*
X001460Y011352D02*
X004557Y011352D01*
X004279Y011986D02*
X001460Y011986D01*
X001460Y012144D02*
X004351Y012144D01*
X004511Y012303D02*
X001460Y012303D01*
X001460Y012461D02*
X004468Y012461D01*
X004349Y012620D02*
X001460Y012620D01*
X001460Y012778D02*
X004300Y012778D01*
X004300Y012937D02*
X001460Y012937D01*
X001460Y013095D02*
X004364Y013095D01*
X004502Y013254D02*
X001460Y013254D01*
X001460Y013412D02*
X004517Y013412D01*
X004370Y013571D02*
X001460Y013571D01*
X001460Y013729D02*
X004304Y013729D01*
X004300Y013888D02*
X001460Y013888D01*
X001460Y014046D02*
X004343Y014046D01*
X004453Y014205D02*
X001460Y014205D01*
X001460Y014363D02*
X004629Y014363D01*
X004407Y014522D02*
X001460Y014522D01*
X001460Y014680D02*
X004257Y014680D01*
X004099Y014839D02*
X001460Y014839D01*
X001460Y014997D02*
X003940Y014997D01*
X003880Y015156D02*
X001460Y015156D01*
X001460Y015314D02*
X003880Y015314D01*
X003880Y015473D02*
X001460Y015473D01*
X001460Y015631D02*
X003880Y015631D01*
X003880Y015790D02*
X001460Y015790D01*
X001460Y015948D02*
X003880Y015948D01*
X003880Y016107D02*
X001460Y016107D01*
X001460Y016265D02*
X003880Y016265D01*
X003880Y016424D02*
X001460Y016424D01*
X001460Y016582D02*
X003880Y016582D01*
X003880Y016741D02*
X001460Y016741D01*
X001460Y016899D02*
X003880Y016899D01*
X003880Y017058D02*
X001460Y017058D01*
X001460Y017216D02*
X003880Y017216D01*
X003862Y017375D02*
X001460Y017375D01*
X001460Y017533D02*
X003923Y017533D01*
X003746Y017692D02*
X001460Y017692D01*
X001460Y017850D02*
X003587Y017850D01*
X003480Y018009D02*
X001460Y018009D01*
X001460Y018167D02*
X003480Y018167D01*
X003343Y018326D02*
X001460Y018326D01*
X001460Y018484D02*
X003343Y018484D01*
X003343Y018643D02*
X001460Y018643D01*
X001460Y018801D02*
X003374Y018801D01*
X003343Y018960D02*
X001460Y018960D01*
X001460Y019118D02*
X003343Y019118D01*
X003343Y019277D02*
X001460Y019277D01*
X001460Y019435D02*
X003378Y019435D01*
X003982Y019435D02*
X004378Y019435D01*
X005017Y019277D02*
X005238Y019277D01*
X005238Y019118D02*
X005017Y019118D01*
X005017Y018960D02*
X005238Y018960D01*
X005238Y018801D02*
X004986Y018801D01*
X004910Y020545D02*
X001460Y020545D01*
X001460Y020703D02*
X004910Y020703D01*
X004910Y020862D02*
X001460Y020862D01*
X001460Y021020D02*
X004910Y021020D01*
X005112Y021813D02*
X001460Y021813D01*
X001460Y021971D02*
X004877Y021971D01*
X004800Y022130D02*
X001460Y022130D01*
X001460Y022288D02*
X004790Y022288D01*
X004790Y022447D02*
X001460Y022447D01*
X001460Y022605D02*
X004790Y022605D01*
X004790Y022764D02*
X001460Y022764D01*
X001466Y022922D02*
X004790Y022922D01*
X004853Y023081D02*
X001510Y023081D01*
X001591Y023239D02*
X005044Y023239D01*
X005416Y023239D02*
X010863Y023239D01*
X007713Y023081D02*
X007647Y023081D01*
X007647Y022922D02*
X007713Y022922D01*
X007713Y022764D02*
X007647Y022764D01*
X007215Y022764D02*
X007057Y022764D01*
X007057Y022605D02*
X007215Y022605D01*
X007215Y022447D02*
X007057Y022447D01*
X006999Y022288D02*
X007273Y022288D01*
X007255Y022130D02*
X007017Y022130D01*
X007017Y021971D02*
X007255Y021971D01*
X007255Y021813D02*
X007017Y021813D01*
X006480Y021654D02*
X001460Y021654D01*
X001460Y021496D02*
X006480Y021496D01*
X006480Y021337D02*
X001460Y021337D01*
X001460Y021179D02*
X006480Y021179D01*
X006480Y021020D02*
X006450Y021020D01*
X006343Y021813D02*
X005348Y021813D01*
X005765Y022288D02*
X006361Y022288D01*
X006303Y022447D02*
X005670Y022447D01*
X005670Y022605D02*
X006303Y022605D01*
X006303Y022668D02*
X006666Y022668D01*
X006666Y023022D01*
X006459Y023022D01*
X006414Y023010D01*
X006373Y022986D01*
X006339Y022952D01*
X006315Y022911D01*
X006303Y022866D01*
X006303Y022668D01*
X006303Y022764D02*
X005670Y022764D01*
X005670Y022922D02*
X006322Y022922D01*
X006666Y022922D02*
X006694Y022922D01*
X006694Y022764D02*
X006666Y022764D01*
X007038Y022922D02*
X007215Y022922D01*
X007311Y023081D02*
X005607Y023081D01*
X008980Y012620D02*
X009050Y012620D01*
X005210Y011669D02*
X005150Y011669D01*
X005150Y011510D02*
X005210Y011510D01*
X005210Y011352D02*
X005150Y011352D01*
D27*
X011380Y014640D03*
X013980Y020940D03*
D28*
X008880Y019740D03*
M02*
